# xmcd CD database file
#
# Track frame offsets:
#	150
#	28865
#	48946
#	76215
#	112019
#	151230
#	194330
#	217938
#	247576
#	280734
#
# Disc length: 4086 seconds
#
# Revision: 0
# Processed by: cddbd v1.5.1PL0 Copyright (c) Steve Scherf et al.
# Submitted via: CDex 1.51
#
DISCID=790ff40a
DTITLE=James Chance and Terminal City - Get Down and Dirty!
DYEAR=2005
DGENRE=Jazz
TTITLE0=Down and Dirty
TTITLE1=The Street with No Name
TTITLE2=Blonde Ice
TTITLE3=The Fix is In
TTITLE4=Devilish Angel
TTITLE5=Another Pompadour
TTITLE6=Chance's Mood
TTITLE7=Lotus Blossom
TTITLE8=The Set Up
TTITLE9=Leave My Girl Alone
EXTD=YEAR: 2005
EXTT0=
EXTT1=
EXTT2=
EXTT3=
EXTT4=
EXTT5=
EXTT6=
EXTT7=
EXTT8=
EXTT9=
PLAYORDER=
